<svg width="921" height="653" viewBox="0 0 921 653" fill="none" xmlns="http://www.w3.org/2000/svg">
<path fill-rule="evenodd" clip-rule="evenodd" d="M672.231 197.063H921C921 197.063 906.044 166.819 891.426 160.958C861.869 149.106 869.966 181.153 869.966 181.153C869.966 181.153 839.51 127.984 790.19 134.611C756.373 139.155 774.891 170.309 774.891 170.309C774.891 170.309 714.094 126.735 681.309 138.484C648.524 150.232 672.231 197.063 672.231 197.063Z" fill="#F7F7F7"/>
<path fill-rule="evenodd" clip-rule="evenodd" d="M805.764 416.617H676.562V253.574L737.17 174.633L805.764 253.574V416.617Z" fill="#21211D"/>
<path fill-rule="evenodd" clip-rule="evenodd" d="M736.856 175.61L676.296 254.243H613.396V174.633L736.856 175.61Z" fill="#50555C"/>
<path fill-rule="evenodd" clip-rule="evenodd" d="M609.885 417.406H676.56V254.244H609.885V417.406Z" fill="url(#paint0_linear_1756_576)"/>
<path fill-rule="evenodd" clip-rule="evenodd" d="M424.215 417.405H513.222V153.876H424.215V417.405Z" fill="black"/>
<path fill-rule="evenodd" clip-rule="evenodd" d="M645.297 416.615H512.585V153.713L579.791 102.377L645.297 153.713V416.615Z" fill="#21211D"/>
<path fill-rule="evenodd" clip-rule="evenodd" d="M579.897 102.906H496.254L424.215 153.615H512.646L579.897 102.906Z" fill="#50555C"/>
<path fill-rule="evenodd" clip-rule="evenodd" d="M808.813 259.499L734.941 176.736L737.635 175.159L811.506 257.922L808.813 259.499Z" fill="#B7B7B7"/>
<path fill-rule="evenodd" clip-rule="evenodd" d="M424.217 344.887H332.34L362.452 289.449H424.217V344.887Z" fill="#50555C"/>
<path fill-rule="evenodd" clip-rule="evenodd" d="M341.911 416.617H424.218V344.363H341.911V416.617Z" fill="#21211D"/>
<path fill-rule="evenodd" clip-rule="evenodd" d="M283.464 418.982C282.091 418.982 280.978 418.041 280.978 416.88C280.978 415.719 282.091 414.778 283.464 414.778H916.529C917.902 414.778 919.016 415.719 919.016 416.88C919.016 418.041 917.902 418.982 916.529 418.982H283.464Z" fill="#F7F7F7"/>
<path fill-rule="evenodd" clip-rule="evenodd" d="M599.995 156.24H627.431L599.995 134.169V156.24Z" fill="url(#paint1_linear_1756_576)"/>
<path fill-rule="evenodd" clip-rule="evenodd" d="M561.395 156.241H596.487V132.167L578.42 118.144L561.395 131.859V156.241Z" fill="url(#paint2_linear_1756_576)"/>
<path fill-rule="evenodd" clip-rule="evenodd" d="M558.842 134.169L532.044 156.24H558.842V134.169Z" fill="url(#paint3_linear_1756_576)"/>
<path fill-rule="evenodd" clip-rule="evenodd" d="M525.983 200.117H554.057V176.996H525.983V200.117Z" fill="#F1F1F1"/>
<path fill-rule="evenodd" clip-rule="evenodd" d="M565.224 200.117H593.297V176.996H565.224V200.117Z" fill="white"/>
<path fill-rule="evenodd" clip-rule="evenodd" d="M605.101 200.117H633.174V176.996H605.101V200.117Z" fill="#F1F1F1"/>
<path fill-rule="evenodd" clip-rule="evenodd" d="M525.983 232.961H554.057V209.84H525.983V232.961Z" fill="url(#paint4_linear_1756_576)"/>
<path fill-rule="evenodd" clip-rule="evenodd" d="M565.224 232.961H593.297V209.84H565.224V232.961Z" fill="white"/>
<path fill-rule="evenodd" clip-rule="evenodd" d="M605.101 232.961H633.174V209.84H605.101V232.961Z" fill="#F1F1F1"/>
<path fill-rule="evenodd" clip-rule="evenodd" d="M525.983 268.169H554.057V245.047H525.983V268.169Z" fill="url(#paint5_linear_1756_576)"/>
<path fill-rule="evenodd" clip-rule="evenodd" d="M565.224 268.169H593.297V245.047H565.224V268.169Z" fill="url(#paint6_linear_1756_576)"/>
<path fill-rule="evenodd" clip-rule="evenodd" d="M605.101 268.169H633.174V245.047H605.101V268.169Z" fill="#F1F1F1"/>
<path fill-rule="evenodd" clip-rule="evenodd" d="M525.983 301.799H554.057V278.678H525.983V301.799Z" fill="#F1F1F1"/>
<path fill-rule="evenodd" clip-rule="evenodd" d="M565.224 301.799H593.297V278.678H565.224V301.799Z" fill="#F1F1F1"/>
<path fill-rule="evenodd" clip-rule="evenodd" d="M605.101 301.799H633.174V278.678H605.101V301.799Z" fill="#F1F1F1"/>
<path fill-rule="evenodd" clip-rule="evenodd" d="M525.983 332.276H554.057V309.155H525.983V332.276Z" fill="#F1F1F1"/>
<path fill-rule="evenodd" clip-rule="evenodd" d="M565.224 332.276H593.297V309.155H565.224V332.276Z" fill="white"/>
<path fill-rule="evenodd" clip-rule="evenodd" d="M605.101 332.276H633.174V309.155H605.101V332.276Z" fill="#F1F1F1"/>
<path fill-rule="evenodd" clip-rule="evenodd" d="M525.983 365.907H554.057V342.786H525.983V365.907Z" fill="#F1F1F1"/>
<path fill-rule="evenodd" clip-rule="evenodd" d="M353.076 377.468H381.149V354.347H353.076V377.468Z" fill="#F1F1F1"/>
<path fill-rule="evenodd" clip-rule="evenodd" d="M395.187 377.468H423.261V354.347H395.187V377.468Z" fill="#F1F1F1"/>
<path fill-rule="evenodd" clip-rule="evenodd" d="M353.076 409.785H381.149V386.664H353.076V409.785Z" fill="#F1F1F1"/>
<path fill-rule="evenodd" clip-rule="evenodd" d="M395.187 409.785H423.261V386.664H395.187V409.785Z" fill="#F1F1F1"/>
<path fill-rule="evenodd" clip-rule="evenodd" d="M565.224 365.907H593.297V342.786H565.224V365.907Z" fill="white"/>
<path fill-rule="evenodd" clip-rule="evenodd" d="M605.101 365.907H633.174V342.786H605.101V365.907Z" fill="#F1F1F1"/>
<path fill-rule="evenodd" clip-rule="evenodd" d="M525.983 401.114H554.057V377.993H525.983V401.114Z" fill="#F1F1F1"/>
<path fill-rule="evenodd" clip-rule="evenodd" d="M565.224 401.114H593.297V377.993H565.224V401.114Z" fill="#F1F1F1"/>
<path fill-rule="evenodd" clip-rule="evenodd" d="M605.101 401.114H633.174V377.993H605.101V401.114Z" fill="#F1F1F1"/>
<path fill-rule="evenodd" clip-rule="evenodd" d="M692.831 305.741H718.672V284.458H692.831V305.741Z" fill="url(#paint7_linear_1756_576)"/>
<path fill-rule="evenodd" clip-rule="evenodd" d="M729.2 305.741H755.04V284.458H729.2V305.741Z" fill="#F1F1F1"/>
<path fill-rule="evenodd" clip-rule="evenodd" d="M766.523 305.741H792.364V284.458H766.523V305.741Z" fill="white"/>
<path fill-rule="evenodd" clip-rule="evenodd" d="M692.831 277.891H718.672V256.609H692.831V277.891Z" fill="#F1F1F1"/>
<path fill-rule="evenodd" clip-rule="evenodd" d="M729.2 277.891H755.04V256.609H729.2V277.891Z" fill="white"/>
<path fill-rule="evenodd" clip-rule="evenodd" d="M726.646 244.522H758.867V217.985H726.646V244.522Z" fill="url(#paint8_linear_1756_576)"/>
<path fill-rule="evenodd" clip-rule="evenodd" d="M766.523 277.891H792.364V256.609H766.523V277.891Z" fill="white"/>
<path fill-rule="evenodd" clip-rule="evenodd" d="M692.831 334.116H718.672V312.834H692.831V334.116Z" fill="#FFC30D"/>
<path fill-rule="evenodd" clip-rule="evenodd" d="M729.2 334.116H755.04V312.834H729.2V334.116Z" fill="#FFC30D"/>
<path fill-rule="evenodd" clip-rule="evenodd" d="M766.523 334.116H792.364V312.834H766.523V334.116Z" fill="url(#paint9_linear_1756_576)"/>
<path fill-rule="evenodd" clip-rule="evenodd" d="M692.831 365.118H718.672V343.836H692.831V365.118Z" fill="white"/>
<path fill-rule="evenodd" clip-rule="evenodd" d="M729.2 365.118H755.04V343.836H729.2V365.118Z" fill="#F1F1F1"/>
<path fill-rule="evenodd" clip-rule="evenodd" d="M766.523 365.118H792.364V343.836H766.523V365.118Z" fill="#F1F1F1"/>
<path fill-rule="evenodd" clip-rule="evenodd" d="M692.831 397.699H718.672V376.417H692.831V397.699Z" fill="#F1F1F1"/>
<path fill-rule="evenodd" clip-rule="evenodd" d="M729.2 397.699H755.04V376.417H729.2V397.699Z" fill="#F1F1F1"/>
<path fill-rule="evenodd" clip-rule="evenodd" d="M766.523 397.699H792.364V376.417H766.523V397.699Z" fill="#F1F1F1"/>
<path fill-rule="evenodd" clip-rule="evenodd" d="M231.481 52.2399C231.481 81.0911 194.151 104.48 148.101 104.48C102.051 104.48 64.7207 81.0911 64.7207 52.2399C64.7207 23.3886 102.051 0 148.101 0C194.151 0 231.481 23.3886 231.481 52.2399Z" fill="url(#paint10_linear_1756_576)"/>
<path fill-rule="evenodd" clip-rule="evenodd" d="M158.168 101.409C158.168 116.326 138.867 128.418 115.058 128.418C91.2493 128.418 71.9487 116.326 71.9487 101.409C71.9487 86.4921 91.2493 74.3994 115.058 74.3994C138.867 74.3994 158.168 86.4921 158.168 101.409Z" fill="#02066F"/>
<path fill-rule="evenodd" clip-rule="evenodd" d="M114.542 74.3994C138.351 74.3994 157.652 86.5645 157.652 101.571C157.652 102.429 157.589 103.278 157.465 104.116C154.224 104.358 150.927 104.482 147.584 104.482C120.73 104.482 96.8411 96.4788 81.5913 84.0498C89.5003 78.1472 101.327 74.3994 114.542 74.3994Z" fill="#352AED" fill-opacity="0.78"/>
<path fill-rule="evenodd" clip-rule="evenodd" d="M88.5181 502.423H155.004C155.004 502.423 158.9 474.368 134.176 479.359C118.016 482.622 120.559 494.515 120.559 494.515C120.559 494.515 111.595 487.46 101.982 490.096C92.3701 492.732 88.5181 502.423 88.5181 502.423Z" fill="black"/>
<path fill-rule="evenodd" clip-rule="evenodd" d="M143.737 502.424H238.215C238.215 502.424 222.554 472.464 206.379 485.591C206.379 485.591 195.057 459.992 172.412 463.93C149.768 467.869 143.737 502.424 143.737 502.424Z" fill="black" fill-opacity="0.4"/>
<path fill-rule="evenodd" clip-rule="evenodd" d="M112.726 122.72C159.066 113.184 208.142 119.493 249.185 139.576C259.622 144.683 271.986 150.969 286.538 158.693C353.506 194.239 300.962 366.044 181.451 346.579C180.98 346.502 180.51 346.424 180.043 346.346L180.051 315.839L264.86 262.796C266.317 261.885 266.599 260.175 265.489 258.979C264.379 257.782 262.298 257.55 260.841 258.462L180.051 308.992V275.132L218.941 202.862C219.126 202.625 219.266 202.365 219.356 202.091L242.834 158.46C243.574 157.084 242.816 155.476 241.141 154.867C239.466 154.259 237.507 154.882 236.767 156.258L216.91 193.158L206.742 161.837C206.27 160.384 204.452 159.52 202.683 159.907C200.913 160.295 199.861 161.788 200.333 163.241L212.628 201.114L176.262 268.695L151.705 235.662L157.951 195.257C158.182 193.765 156.896 192.401 155.079 192.212C153.262 192.022 151.602 193.079 151.371 194.571L146.17 228.216L125.171 199.97C124.216 198.686 122.175 198.28 120.612 199.064C119.049 199.848 118.555 201.525 119.51 202.809L173.418 275.323L173.411 345.174C61.5631 324.272 53.5325 263.489 46.4866 184.929C43.1061 147.241 76.3982 130.195 112.726 122.72Z" fill="url(#paint11_linear_1756_576)" fill-opacity="0.78"/>
<path fill-rule="evenodd" clip-rule="evenodd" d="M241.203 155.656C242.884 156.265 243.644 157.875 242.901 159.252L219.505 202.645C219.41 203.049 219.204 203.428 218.907 203.755L179.668 276.533V309.833L260.823 259.289C262.285 258.379 264.373 258.61 265.486 259.806C266.6 261.002 266.317 262.71 264.855 263.621L179.668 316.676V490.23C179.668 491.735 178.185 492.955 176.355 492.955C174.525 492.955 173.042 491.735 173.042 490.23V276.278L119.19 203.732C118.236 202.447 118.729 200.77 120.291 199.986C121.853 199.201 123.892 199.607 124.845 200.891L145.96 229.336L151.126 195.646C151.354 194.161 152.991 193.11 154.784 193.299C156.577 193.487 157.846 194.844 157.618 196.329L151.428 236.702L176.014 269.822L212.723 201.735L200.527 164.096C200.058 162.647 201.105 161.159 202.865 160.773C204.626 160.386 206.435 161.248 206.904 162.697L216.989 193.822L236.817 157.048C237.559 155.671 239.523 155.048 241.203 155.656Z" fill="black"/>
<path fill-rule="evenodd" clip-rule="evenodd" d="M62.0417 213.02C50.4488 216.068 40.6615 222.545 34.1847 230.992C14.2018 257.053 -35.9562 336.465 42.9151 393.481C138.528 462.599 180.309 310.539 155.401 261.827C137.432 226.685 98.0956 203.544 62.0417 213.02Z" fill="url(#paint12_linear_1756_576)"/>
<path fill-rule="evenodd" clip-rule="evenodd" d="M82.191 272.138C84.2182 272.138 85.8616 273.473 85.8616 275.121V328.588L117.802 304.718C119.278 303.615 121.563 303.704 122.905 304.918C124.247 306.131 124.138 308.009 122.662 309.113L85.8616 336.615V489.97C85.8616 491.617 84.2182 492.953 82.191 492.953C80.1638 492.953 78.5204 491.617 78.5204 489.97V380.219L18.1595 336.788C16.6521 335.704 16.4955 333.816 17.8095 332.572C19.1236 331.328 21.4108 331.199 22.9181 332.283L45.7785 348.732L46.4199 322.121C46.4597 320.471 48.1045 319.16 50.0937 319.193C52.0828 319.226 53.6631 320.59 53.6233 322.241L52.8619 353.828L78.5204 372.29V314.747L40.0917 285.188C38.6301 284.064 38.5511 282.176 39.9153 280.972C41.2795 279.767 43.5702 279.702 45.0318 280.826L78.5204 306.585V275.121C78.5204 273.473 80.1638 272.138 82.191 272.138Z" fill="black"/>
<path fill-rule="evenodd" clip-rule="evenodd" d="M332.508 392.251C332.508 392.251 353.478 462.275 356.335 634.038L306.474 632.789L296.994 632.552L293.252 426.621L285.197 426.469C285.197 426.469 270.632 630.056 270.632 633.702L206.486 634.038C206.486 634.038 219.29 425.166 241.6 392.251H332.508Z" fill="black"/>
<path fill-rule="evenodd" clip-rule="evenodd" d="M239.65 395.802C239.741 395.804 239.92 395.807 240.181 395.811C240.617 395.817 241.128 395.825 241.71 395.834C243.374 395.858 245.274 395.886 247.378 395.916C249.027 395.939 250.709 395.962 252.417 395.985C252.543 395.852 252.751 395.779 252.966 395.809C253.121 395.83 253.251 395.9 253.337 395.997C257.576 396.055 261.976 396.111 266.456 396.164C273.498 396.249 280.329 396.321 286.797 396.38C313.383 396.618 330.543 396.581 333.407 396.175C333.721 396.13 334.019 396.303 334.073 396.562C334.127 396.82 333.916 397.065 333.603 397.11C330.627 397.532 313.58 397.569 286.784 397.328C280.315 397.27 273.483 397.198 266.439 397.113C261.959 397.06 257.56 397.004 253.32 396.947C253.312 396.992 253.302 397.042 253.292 397.093C253.17 397.705 253.026 398.432 252.861 399.272C252.388 401.673 251.841 404.497 251.224 407.724C249.46 416.946 247.495 427.555 245.379 439.397C239.334 473.232 233.288 510.17 227.645 548.989C223.542 577.213 219.806 605.416 216.52 633.341C216.49 633.602 216.208 633.793 215.891 633.77C215.574 633.742 215.343 633.51 215.373 633.249C218.66 605.317 222.397 577.108 226.501 548.876C232.145 510.048 238.192 473.102 244.239 439.259C246.356 427.413 248.321 416.802 250.085 407.577C250.703 404.348 251.251 401.523 251.723 399.121C251.889 398.28 252.033 397.552 252.155 396.939L252.156 396.931C250.53 396.909 248.93 396.887 247.358 396.864C245.254 396.835 243.353 396.807 241.689 396.782C241.107 396.774 240.596 396.766 240.16 396.759C239.898 396.755 239.72 396.753 239.628 396.751C239.31 396.746 239.057 396.53 239.063 396.268C239.069 396.006 239.332 395.797 239.65 395.802ZM300.641 425.937C300.959 425.928 301.226 426.133 301.237 426.395C301.248 426.657 300.999 426.877 300.681 426.886L293.272 427.096C292.954 427.105 292.687 426.9 292.676 426.639C292.665 426.377 292.914 426.157 293.232 426.148L300.641 425.937Z" fill="#B5B5B5"/>
<path fill-rule="evenodd" clip-rule="evenodd" d="M305.799 632.68L307.074 652.998H326.073L325.554 650.362L331.375 652.998H366.936C366.936 652.998 368.334 649.024 362.813 646.539C356.559 643.724 355.605 642.705 354.495 640.138C352.805 636.228 353.472 633.676 353.472 633.676L305.799 632.68Z" fill="#B5B5B5"/>
<path fill-rule="evenodd" clip-rule="evenodd" d="M306.764 648.059L307.075 652.996H326.073L325.554 650.361L331.375 652.996H366.936C366.936 652.996 367.962 650.068 364.758 647.668L306.764 648.059Z" fill="black"/>
<path fill-rule="evenodd" clip-rule="evenodd" d="M220.778 633.457L218.333 647.695L235.49 649.805L236.274 647.515L243.644 652.682L274.775 653C274.775 653 276.243 648.917 270.651 646.54C266.751 644.883 265.225 643.741 264.604 641.565C263.449 637.526 263.615 633.677 263.615 633.677L220.778 633.457Z" fill="#B5B5B5"/>
<path fill-rule="evenodd" clip-rule="evenodd" d="M219.37 642.087L218.333 647.696L235.49 649.805L236.274 647.516L243.644 652.682L274.775 653C274.775 653 275.494 650.818 274.151 649.228C274.151 649.228 247.129 648.232 243.931 647.223C238.894 645.633 229.827 643.835 229.827 643.835L219.37 642.087Z" fill="black"/>
<path fill-rule="evenodd" clip-rule="evenodd" d="M271.563 245.023C253.384 245.023 238.647 255.823 238.647 269.145C238.647 271.872 239.274 274.491 240.412 276.936C240.3 276.933 240.19 276.925 240.078 276.925C235.287 276.925 231.403 279.555 231.403 282.801C231.403 286.047 235.287 288.678 240.078 288.678C242.725 288.678 245.093 287.873 246.683 286.605C247.257 286.147 248.145 286.098 248.752 286.526C253.2 289.663 258.844 291.894 265.138 292.807C265.947 292.924 266.518 293.525 266.471 294.2L265.572 307.311H280.805L280.1 296.982C279.928 294.521 281.678 292.215 284.476 291.339C296.237 287.66 304.479 279.108 304.479 269.145C304.479 255.823 289.742 245.023 271.563 245.023Z" fill="#937171"/>
<path fill-rule="evenodd" clip-rule="evenodd" d="M222.921 256.172C241.253 231.928 282.159 240.428 282.159 240.428C290.276 242.359 295.776 245.426 299.47 248.914C309.374 256.82 308.903 270.52 308.975 270.935C310.074 277.272 304.921 289.371 310.618 291.332C323.221 295.672 324.477 301.985 324.477 301.985L280.496 302.679L280.099 296.984C279.927 294.523 281.677 292.217 284.476 291.341C295.278 287.962 303.111 280.472 304.317 271.553C294.647 264.479 288.697 252.928 288.697 252.928C287.296 263.314 240.411 276.938 240.411 276.938C240.3 276.935 240.19 276.927 240.077 276.927C235.286 276.927 231.403 279.558 231.403 282.803C231.403 286.05 235.286 288.681 240.077 288.681C242.725 288.681 245.093 287.875 246.682 286.607C247.256 286.149 248.144 286.101 248.752 286.529C253.199 289.665 258.844 291.896 265.137 292.809C265.946 292.927 266.518 293.527 266.47 294.202L265.864 302.91L203.403 303.896C203.403 303.896 198.705 287.661 210.197 286.09C218.944 284.894 216.06 277.439 216.821 270.621C217.67 263.019 222.739 256.201 222.739 256.201L222.921 256.172Z" fill="black"/>
<path fill-rule="evenodd" clip-rule="evenodd" d="M250.515 275.328C250.515 282.351 244.133 288.044 236.262 288.044C228.39 288.044 222.009 282.351 222.009 275.328C222.009 268.306 228.39 262.612 236.262 262.612C244.133 262.612 250.515 268.306 250.515 275.328Z" fill="#D9D9D9"/>
<path fill-rule="evenodd" clip-rule="evenodd" d="M243.706 275.326C243.706 282.067 238.849 287.533 232.857 287.533C226.866 287.533 222.009 282.067 222.009 275.326C222.009 268.584 226.866 263.119 232.857 263.119C238.849 263.119 243.706 268.584 243.706 275.326Z" fill="#B5B5B5"/>
<path fill-rule="evenodd" clip-rule="evenodd" d="M311.89 267.893C311.89 267.893 312.84 247.281 286.548 241.281C241.278 230.949 231.43 263.197 231.43 263.197L239.349 262.936C239.349 262.936 250.082 241.272 286.39 245.455C309.039 248.064 309.989 267.632 309.989 267.632L311.89 267.893Z" fill="#B5B5B5"/>
<path fill-rule="evenodd" clip-rule="evenodd" d="M308.629 266.976L307.455 285.504C307.455 285.504 317.348 286.927 318.859 279.502C321.526 266.391 308.629 266.976 308.629 266.976Z" fill="#B5B5B5"/>
<path fill-rule="evenodd" clip-rule="evenodd" d="M313.136 267.61C311.134 267.104 308.629 266.974 308.629 266.974L307.455 285.502C307.455 285.502 309.745 285.829 312.288 285.345L313.136 267.61Z" fill="#D9D9D9"/>
<path fill-rule="evenodd" clip-rule="evenodd" d="M259.151 274.556C258.814 274.834 258.266 274.834 257.929 274.556C257.591 274.278 257.591 273.827 257.929 273.549C258.361 273.193 259.127 272.681 260.175 272.173C264.242 270.199 268.779 270.127 273.169 273.214C273.532 273.47 273.575 273.919 273.265 274.218C272.955 274.517 272.41 274.552 272.047 274.297C268.281 271.649 264.536 271.709 261.053 273.399C260.521 273.657 260.044 273.934 259.632 274.21C259.39 274.371 259.227 274.494 259.151 274.556Z" fill="#010103"/>
<path fill-rule="evenodd" clip-rule="evenodd" d="M284.069 274.41C283.828 274.749 283.298 274.863 282.886 274.664C282.475 274.465 282.337 274.029 282.579 273.69C282.891 273.252 283.47 272.626 284.317 272.001C287.737 269.477 292.159 269.477 297.101 273.547C297.438 273.825 297.438 274.275 297.101 274.553C296.763 274.831 296.216 274.831 295.878 274.553C291.601 271.031 288.222 271.031 285.47 273.062C285.063 273.362 284.708 273.685 284.41 274.007C284.234 274.197 284.12 274.339 284.069 274.41Z" fill="#010103"/>
<path fill-rule="evenodd" clip-rule="evenodd" d="M264.153 279.048H286.035C286.532 279.048 286.926 279.392 286.897 279.801C286.876 280.107 286.793 280.616 286.609 281.262C286.304 282.332 285.815 283.402 285.097 284.407C282.989 287.356 279.394 289.111 274.086 289.042C269.555 288.982 266.514 287.221 264.768 284.365C264.156 283.363 263.749 282.296 263.506 281.23C263.36 280.588 263.3 280.084 263.289 279.781C263.275 279.38 263.666 279.048 264.153 279.048Z" fill="#DDB5B5"/>
<path fill-rule="evenodd" clip-rule="evenodd" d="M266.91 284.915C267.249 284.838 267.631 284.761 268.05 284.689C270.11 284.337 272.248 284.235 274.272 284.538C276.59 284.885 278.538 285.745 279.953 287.211C280.3 287.571 280.149 288.103 279.644 288.298C279.37 288.404 278.897 288.552 278.255 288.697C274.893 289.455 270.754 289.283 267.684 287.341C267.188 287.027 266.672 286.609 266.16 286.224C265.673 285.858 265.843 285.195 266.469 285.023C266.554 285 266.703 284.962 266.91 284.915Z" fill="#989898"/>
<path fill-rule="evenodd" clip-rule="evenodd" d="M203.635 313.727C203.635 313.727 229.238 306.491 271.919 306.481C301.352 306.474 323.726 309.021 340.648 322.71L323.016 354.332L334.423 399.615C334.423 399.615 285.602 415.398 226.972 400.367L223.094 344.373L203.635 313.727Z" fill="#02066F"/>
<mask id="mask0_1756_576" style="mask-type:luminance" maskUnits="userSpaceOnUse" x="203" y="306" width="138" height="101">
<path fill-rule="evenodd" clip-rule="evenodd" d="M203.635 313.727C203.635 313.727 229.238 306.491 271.919 306.481C301.352 306.474 323.726 309.021 340.648 322.71L323.016 354.332L334.423 399.615C334.423 399.615 285.602 415.398 226.972 400.367L223.094 344.373L203.635 313.727Z" fill="white"/>
</mask>
<g mask="url(#mask0_1756_576)">
<path fill-rule="evenodd" clip-rule="evenodd" d="M355.703 305.89V306.364H356.28V409.809H354.551V389.878H329.201V409.809H327.473V389.878H302.123V409.809H300.395V389.878H275.045V409.809H273.317V389.878H247.967V409.809H246.239V389.878H220.889V409.809H219.161V389.878L194.387 389.879V388.455L219.161 388.455V369.356H194.387V367.933H219.161V348.596H194.387V347.173H219.161V328.191L194.387 328.192V326.768L219.161 326.768V307.313H194.387V305.89H355.703ZM246.239 369.356H220.889V388.455H246.239V369.356ZM273.317 369.356H247.967V388.455H273.317V369.356ZM300.395 369.356H275.045V388.455H300.395V369.356ZM327.473 369.356H302.123V388.455H327.473V369.356ZM354.551 369.356H329.201V388.455H354.551V369.356ZM246.239 348.596H220.889V367.933H246.239V348.596ZM273.317 348.596H247.967V367.933H273.317V348.596ZM300.395 348.596H275.045V367.933H300.395V348.596ZM327.473 348.596H302.123V367.933H327.473V348.596ZM354.551 348.596H329.201V367.933H354.551V348.596ZM246.239 328.191H220.889V347.173H246.239V328.191ZM273.317 328.191H247.967V347.173H273.317V328.191ZM300.395 328.191H275.045V347.173H300.395V328.191ZM327.473 328.191H302.123V347.173H327.473V328.191ZM354.551 328.191H329.201V347.173H354.551V328.191ZM246.239 307.313H220.889V326.768H246.239V307.313ZM273.317 307.313H247.967V326.768H273.317V307.313ZM300.395 307.313H275.045V326.768H300.395V307.313ZM327.473 307.313H302.123V326.768H327.473V307.313ZM354.551 307.313H329.201V326.768H354.551V307.313Z" fill="#010103"/>
</g>
<path fill-rule="evenodd" clip-rule="evenodd" d="M204.271 313.532C203.883 313.645 203.669 313.712 203.639 313.722L223.094 344.369L223.224 344.899L177.902 357.939C177.902 357.939 200.675 373.972 218.122 383.501C222.846 386.082 226.225 389.207 228.639 392.391C233.794 399.192 235.28 407.451 233.111 415.261L233.023 415.573L229.473 431.165C228.938 433.511 227.035 435.533 224.338 436.406C223.284 436.748 222.289 436.87 221.677 436.466C219.841 435.256 221.427 422.98 221.427 422.98C221.427 422.98 213.737 435.338 207.493 439.271C201.249 443.203 199.291 441.622 199.024 440.982C198.249 439.124 205.857 430.121 207.648 427.506C207.648 427.506 202.826 430.574 201.353 432.2C199.672 434.054 199.507 436.056 195.283 439.989C193.172 441.954 191.443 441.548 190.242 440.649C188.951 439.684 188.501 438.173 188.935 436.787L188.982 436.649L190.574 432.207C183.412 438.863 179.097 435.09 179.004 434.173C178.799 432.15 185.799 424.341 185.799 424.341C183.228 424.492 179.555 422.375 180.657 420.56C181.068 419.884 200.151 407.194 200.151 407.194C200.151 407.194 175.295 401.617 152.135 382.866C128.975 364.114 120.732 349.888 133.686 335.34C142.214 325.761 179.672 317.832 204.271 313.532ZM340.328 322.422C352.252 330.773 367.807 345.374 382.097 363.794L382.53 364.353L442.555 384.908L475.066 379.397C475.066 379.397 487.109 377.405 485.704 381.132C485.176 382.532 483.906 383.658 482.311 384.309C479.56 385.432 474.525 387.433 472.532 387.878C477.716 386.938 487.666 385.169 490.163 384.712C492.635 384.259 500.883 381.922 502.114 382.844C503.625 383.976 503.451 387.453 500.895 388.711C500.895 388.711 505.136 387.823 505.663 389.284C506.531 391.686 504.534 394.723 499.498 396.257C499.498 396.257 502.553 395.872 503.913 396.939C504.662 397.525 504.532 399.38 504.123 400.054C502.887 402.09 499.291 403.303 499.291 403.303C499.291 403.303 503.637 403.416 503.775 404.78C503.86 405.621 503.784 407.523 501.568 408.701C497.979 410.606 489.986 412.539 480.663 413.1C465.58 414.01 440.967 412.437 440.967 412.437L440.904 412.439C438.867 412.511 387.678 414.143 362.034 395.837C362.034 395.837 331.257 371.545 324.294 355.723L324.091 355.246L323.404 353.632L340.647 322.705C340.543 322.608 340.434 322.518 340.328 322.422ZM251.815 307.039C277.815 305.3 297.833 307.464 297.833 307.464C297.833 307.464 293.3 317.991 276.031 318.498C259.107 318.996 252.097 307.513 251.823 307.053L251.815 307.039Z" fill="#937171"/>
<path fill-rule="evenodd" clip-rule="evenodd" d="M203.702 420.085C203.887 420.298 203.827 420.595 203.568 420.747C202.952 421.109 202.359 421.405 201.404 421.845C198.167 423.334 197.031 423.988 195.074 425.789C194.719 426.116 194.128 426.974 193.402 428.196C193.26 428.434 193.115 428.684 192.965 428.945C192.534 429.698 192.092 430.507 191.664 431.315C191.515 431.598 191.377 431.861 191.255 432.097C191.182 432.238 191.131 432.339 191.104 432.392C190.981 432.634 190.644 432.748 190.35 432.647C190.057 432.546 189.918 432.268 190.041 432.026C190.069 431.971 190.121 431.869 190.195 431.725C190.318 431.487 190.457 431.222 190.608 430.936C191.04 430.12 191.486 429.303 191.923 428.54C192.075 428.275 192.223 428.021 192.367 427.778C193.143 426.473 193.762 425.573 194.216 425.156C196.279 423.257 197.502 422.553 200.842 421.016C201.763 420.592 202.325 420.312 202.898 419.975C203.157 419.822 203.517 419.872 203.702 420.085ZM211.81 423.015C212.063 423.174 212.111 423.471 211.918 423.68L208.104 427.796C207.911 428.005 207.55 428.045 207.297 427.886C207.044 427.727 206.995 427.429 207.188 427.22L211.002 423.104C211.195 422.896 211.557 422.856 211.81 423.015ZM196.385 416.311C196.629 416.479 196.662 416.778 196.459 416.979C195.872 417.559 194.182 418.868 191.674 420.719C191.532 420.824 191.532 420.824 191.39 420.928C190.249 421.768 189.027 422.656 187.804 423.535C187.376 423.843 186.979 424.128 186.623 424.383C186.409 424.536 186.256 424.645 186.174 424.703C185.933 424.874 185.569 424.852 185.361 424.654C185.153 424.456 185.18 424.156 185.421 423.985C185.502 423.927 185.654 423.819 185.867 423.666C186.223 423.412 186.619 423.128 187.046 422.821C188.266 421.943 189.485 421.058 190.623 420.22C190.764 420.116 190.764 420.116 190.905 420.012C193.357 418.203 195.04 416.9 195.573 416.372C195.777 416.171 196.14 416.143 196.385 416.311ZM205.896 405.502C206.004 405.749 205.848 406.02 205.548 406.109L200.343 407.644C200.044 407.732 199.714 407.604 199.607 407.357C199.499 407.11 199.655 406.838 199.955 406.75L205.16 405.215C205.459 405.127 205.789 405.255 205.896 405.502ZM499.836 403.156C499.936 403.405 499.772 403.673 499.47 403.756C499.415 403.771 499.311 403.798 499.162 403.836C498.916 403.899 498.631 403.969 498.311 404.044C497.398 404.258 496.384 404.472 495.295 404.672C492.382 405.206 489.478 405.542 486.757 405.582C484.642 405.614 482.716 405.463 481.022 405.103C480.714 405.038 480.529 404.779 480.608 404.525C480.688 404.272 481.002 404.119 481.31 404.184C482.893 404.521 484.718 404.664 486.737 404.634C489.37 404.594 492.201 404.267 495.044 403.745C496.11 403.55 497.103 403.34 497.995 403.131C498.307 403.058 498.583 402.99 498.822 402.93C498.963 402.893 499.06 402.868 499.108 402.855C499.41 402.772 499.736 402.907 499.836 403.156ZM476.727 386.911C476.798 387.166 476.604 387.421 476.294 387.479L468.026 389.04C468.036 389.171 468.045 389.313 468.054 389.467C468.201 391.99 468.117 394.796 467.63 397.453C467.255 399.502 466.662 401.282 465.813 402.721C465.674 402.957 465.33 403.055 465.043 402.941C464.757 402.826 464.638 402.542 464.777 402.306C465.568 400.965 466.131 399.273 466.491 397.312C466.965 394.726 467.047 391.979 466.903 389.512C466.89 389.287 466.876 389.087 466.862 388.915C466.854 388.813 466.847 388.743 466.844 388.708C466.82 388.472 467.01 388.258 467.289 388.206L476.037 386.554C476.347 386.496 476.656 386.655 476.727 386.911ZM500.048 396.122C500.14 396.373 499.968 396.638 499.663 396.714C499.582 396.734 499.429 396.771 499.208 396.822C498.841 396.907 498.416 397.002 497.938 397.105C496.575 397.396 495.058 397.688 493.428 397.96C488.948 398.707 484.475 399.169 480.291 399.203C479.939 399.205 479.59 399.205 479.244 399.202C478.926 399.199 478.671 398.984 478.675 398.722C478.678 398.46 478.939 398.25 479.258 398.253C479.595 398.256 479.936 398.256 480.28 398.254C484.382 398.22 488.785 397.766 493.2 397.03C494.808 396.761 496.304 396.474 497.648 396.186C498.118 396.086 498.535 395.992 498.894 395.909C499.109 395.859 499.256 395.824 499.33 395.805C499.634 395.729 499.956 395.871 500.048 396.122ZM501.887 388.034C502.081 388.242 502.033 388.54 501.78 388.699C498.43 390.815 484.068 394.019 477.142 394.309C476.824 394.322 476.553 394.121 476.537 393.859C476.521 393.597 476.766 393.374 477.083 393.361C483.798 393.08 497.948 389.923 501.079 387.946C501.332 387.787 501.694 387.826 501.887 388.034ZM171.038 355.468L178.09 357.493C178.391 357.579 178.549 357.85 178.445 358.097C178.34 358.344 178.011 358.475 177.711 358.389L170.659 356.364C170.359 356.277 170.2 356.007 170.305 355.759C170.41 355.512 170.738 355.381 171.038 355.468Z" fill="#ACACAC"/>
<path fill-rule="evenodd" clip-rule="evenodd" d="M589.14 532.269C602.903 528.576 631.584 526.216 645.383 564.254C645.383 564.254 684.475 564.107 706.612 566.613C732.449 569.538 733.112 579.214 743.727 583.832C768.621 594.661 786.889 595.855 786.978 598.218C787.246 605.555 750.182 596.661 745.642 595.415C745.642 595.415 752.6 611.229 743.156 647.177C742.818 648.463 741.387 649.354 739.794 649.265L735.21 649.008C733.525 648.913 732.217 647.76 732.217 646.368V626.326C732.217 625.313 731.184 624.509 729.958 624.565L729.885 624.569C728.803 624.618 727.937 625.326 727.868 626.217L726.3 646.555C726.193 647.948 724.789 649.033 723.094 649.033H719.567C717.842 649.033 716.424 647.911 716.357 646.491L714.834 614.595C714.834 614.595 660.806 625.236 638.959 624.655L635.723 649.531C635.557 650.809 634.3 651.804 632.743 651.89L631.082 651.981C629.525 652.066 628.118 651.217 627.748 649.968L621.295 628.211C621.05 627.384 620.122 626.82 619.09 626.87L618.771 626.885C617.69 626.938 616.827 627.646 616.759 628.535L615.169 649.51C615.071 650.798 613.857 651.84 612.298 651.976L609.048 652.258C607.372 652.403 605.844 651.456 605.549 650.089L590.804 581.704C590.804 581.704 557.685 560.871 573.725 541.59C577.423 537.146 582.92 533.938 589.14 532.269Z" fill="#937171"/>
<path fill-rule="evenodd" clip-rule="evenodd" d="M670.232 600.361C669.674 596.158 663.954 593.884 659.533 596.036C653.616 598.916 646.474 604.029 656.463 608.921C666.543 613.857 671.051 606.531 670.232 600.361Z" fill="black"/>
<path fill-rule="evenodd" clip-rule="evenodd" d="M605.443 540.531C604.911 542.467 603.24 543.806 601.712 543.521C600.184 543.236 599.377 541.435 599.91 539.499C600.443 537.562 602.115 536.223 603.642 536.508C605.17 536.793 605.977 538.594 605.443 540.531Z" fill="black"/>
<path fill-rule="evenodd" clip-rule="evenodd" d="M590.587 549.071C590.372 548.745 589.877 548.624 589.48 548.801C589.452 548.814 586.634 550.053 583.961 549.298C582.419 548.863 581.204 547.827 580.351 546.219L580.203 545.94L584.155 542.334C584.635 541.896 584.332 541.194 583.624 541.105L578.72 540.483C578.064 540.401 577.529 540.911 577.723 541.433L579.304 545.685L578.943 546.092C578.906 546.135 575.112 550.329 569.781 548.638C569.364 548.506 568.888 548.677 568.726 549.024C568.564 549.371 568.774 549.76 569.195 549.894C574.045 551.43 577.806 549.014 579.413 547.677C580.42 549.13 581.768 550.101 583.432 550.571C584.24 550.799 585.049 550.886 585.813 550.886C588.205 550.886 590.153 550.03 590.26 549.983C590.656 549.805 590.803 549.397 590.587 549.071Z" fill="black"/>
<path fill-rule="evenodd" clip-rule="evenodd" d="M618.473 575.625C625.105 583.048 634.723 557.418 637.683 548.865C633.444 542.671 628.637 538.405 623.658 535.544C621.272 541.569 611.477 567.794 618.473 575.625Z" fill="black"/>
<path fill-rule="evenodd" clip-rule="evenodd" d="M686.289 585.581C699.84 603.05 722.623 579.467 720.621 569.478C716.958 568.273 712.423 567.273 706.614 566.615C701.304 566.014 695.017 565.565 688.53 565.231C682.596 568.553 677.847 574.698 686.289 585.581Z" fill="black"/>
<path fill-rule="evenodd" clip-rule="evenodd" d="M570.887 560.231C566.737 564.175 556.731 575.208 562.61 585.162C568.145 594.533 574.725 578.702 577.599 570.447C574.893 567.425 572.41 563.954 570.887 560.231Z" fill="black"/>
<defs>
<linearGradient id="paint0_linear_1756_576" x1="643.223" y1="254.244" x2="643.223" y2="417.406" gradientUnits="userSpaceOnUse">
<stop/>
<stop offset="1" stop-color="#18119A" stop-opacity="0"/>
</linearGradient>
<linearGradient id="paint1_linear_1756_576" x1="613.713" y1="134.169" x2="613.713" y2="156.24" gradientUnits="userSpaceOnUse">
<stop stop-color="#FFC30D"/>
<stop offset="1" stop-color="#FFC30D" stop-opacity="0"/>
</linearGradient>
<linearGradient id="paint2_linear_1756_576" x1="578.941" y1="118.144" x2="578.941" y2="156.241" gradientUnits="userSpaceOnUse">
<stop stop-color="#FFC30D"/>
<stop offset="1" stop-color="#FFC30D" stop-opacity="0"/>
</linearGradient>
<linearGradient id="paint3_linear_1756_576" x1="545.443" y1="134.169" x2="545.443" y2="156.24" gradientUnits="userSpaceOnUse">
<stop stop-color="#FFC30D"/>
<stop offset="1" stop-color="#FFC30D" stop-opacity="0"/>
</linearGradient>
<linearGradient id="paint4_linear_1756_576" x1="540.02" y1="209.84" x2="540.02" y2="232.961" gradientUnits="userSpaceOnUse">
<stop stop-color="#FFC30D"/>
<stop offset="1" stop-color="#FFC30D" stop-opacity="0"/>
</linearGradient>
<linearGradient id="paint5_linear_1756_576" x1="540.02" y1="245.047" x2="540.02" y2="268.169" gradientUnits="userSpaceOnUse">
<stop stop-color="#FFC30D"/>
<stop offset="1" stop-color="#FFC30D" stop-opacity="0"/>
</linearGradient>
<linearGradient id="paint6_linear_1756_576" x1="579.26" y1="245.047" x2="579.26" y2="268.169" gradientUnits="userSpaceOnUse">
<stop stop-color="#FFC30D"/>
<stop offset="1" stop-color="#FFC30D" stop-opacity="0"/>
</linearGradient>
<linearGradient id="paint7_linear_1756_576" x1="705.751" y1="284.458" x2="705.751" y2="305.741" gradientUnits="userSpaceOnUse">
<stop stop-color="#FFC30D"/>
<stop offset="1" stop-color="#FFC30D" stop-opacity="0"/>
</linearGradient>
<linearGradient id="paint8_linear_1756_576" x1="742.756" y1="217.985" x2="742.756" y2="244.522" gradientUnits="userSpaceOnUse">
<stop stop-color="#FFC30D"/>
<stop offset="1" stop-color="#FFC30D" stop-opacity="0"/>
</linearGradient>
<linearGradient id="paint9_linear_1756_576" x1="779.444" y1="312.834" x2="779.444" y2="334.116" gradientUnits="userSpaceOnUse">
<stop stop-color="#FFC30D"/>
<stop offset="1" stop-color="#FFC30D" stop-opacity="0"/>
</linearGradient>
<linearGradient id="paint10_linear_1756_576" x1="148.101" y1="0" x2="148.101" y2="104.48" gradientUnits="userSpaceOnUse">
<stop/>
<stop offset="1" stop-color="#352AED" stop-opacity="0"/>
</linearGradient>
<linearGradient id="paint11_linear_1756_576" x1="181.105" y1="118.357" x2="181.105" y2="348.111" gradientUnits="userSpaceOnUse">
<stop/>
<stop offset="1" stop-color="#736CE9" stop-opacity="0"/>
</linearGradient>
<linearGradient id="paint12_linear_1756_576" x1="81.2322" y1="210.888" x2="81.2322" y2="411.199" gradientUnits="userSpaceOnUse">
<stop/>
<stop offset="1" stop-color="#02066F" stop-opacity="0"/>
</linearGradient>
</defs>
</svg>
