<svg width="333" height="53" viewBox="0 0 333 53" fill="none" xmlns="http://www.w3.org/2000/svg">
<mask id="mask0_1413_8032" style="mask-type:alpha" maskUnits="userSpaceOnUse" x="0" y="20" width="13" height="16">
<path fill-rule="evenodd" clip-rule="evenodd" d="M0 20.3916H12.4517V35.2611H0V20.3916Z" fill="white"/>
</mask>
<g mask="url(#mask0_1413_8032)">
<path fill-rule="evenodd" clip-rule="evenodd" d="M6.22589 35.2613C2.78741 35.2613 0 33.3814 0 31.0624V24.5908C0 22.2718 2.78741 20.3918 6.22589 20.3918C9.66426 20.3918 12.4517 22.2718 12.4517 24.5908V31.0624C12.4517 33.3814 9.66426 35.2613 6.22589 35.2613Z" fill="#02066F"/>
</g>
<path fill-rule="evenodd" clip-rule="evenodd" d="M23.7548 33.3254C23.7548 36.0557 20.4653 38.269 16.4075 38.269C12.3497 38.269 9.06018 36.0557 9.06018 33.3254C9.06018 30.5952 12.3497 28.3818 16.4075 28.3818C20.4653 28.3818 23.7548 30.5952 23.7548 33.3254Z" fill="#50555C"/>
<path fill-rule="evenodd" clip-rule="evenodd" d="M6.2494 52.1637C6.20325 52.1637 6.16589 52.1385 6.16589 52.1073V25.1801C6.16589 25.149 6.20325 25.1238 6.2494 25.1238C6.29556 25.1238 6.33292 25.149 6.33292 25.1801V52.1073C6.33292 52.1385 6.29556 52.1637 6.2494 52.1637Z" fill="#02066F"/>
<path fill-rule="evenodd" clip-rule="evenodd" d="M16.3795 52.1636C16.3334 52.1636 16.296 52.1384 16.296 52.1072V33.5317C16.296 33.5006 16.3334 33.4753 16.3795 33.4753C16.4257 33.4753 16.463 33.5006 16.463 33.5317V52.1072C16.463 52.1384 16.4257 52.1636 16.3795 52.1636Z" fill="#02066F"/>
<path fill-rule="evenodd" clip-rule="evenodd" d="M6.24949 28.1953C6.23235 28.1953 6.21509 28.1918 6.20018 28.1845C6.16288 28.1662 6.15475 28.131 6.18203 28.1059L10.1336 24.4732C10.1609 24.4482 10.2132 24.4427 10.2505 24.461C10.2878 24.4794 10.296 24.5146 10.2687 24.5396L6.31712 28.1723C6.3007 28.1873 6.27532 28.1953 6.24949 28.1953Z" fill="#02066F"/>
<path fill-rule="evenodd" clip-rule="evenodd" d="M6.24899 30.3299C6.2285 30.3299 6.20796 30.3249 6.19188 30.3148L2.29597 27.8802C2.26219 27.8591 2.26041 27.8236 2.29191 27.801C2.32347 27.7784 2.37646 27.7771 2.4103 27.7983L6.30609 30.2329C6.33994 30.254 6.34172 30.2895 6.31016 30.3121C6.29368 30.3239 6.27136 30.3299 6.24899 30.3299Z" fill="#02066F"/>
<path fill-rule="evenodd" clip-rule="evenodd" d="M16.3794 35.2732C16.3555 35.2732 16.3318 35.2663 16.3153 35.2528C16.2857 35.2288 16.2905 35.1931 16.3259 35.1731L20.5563 32.7771C20.5917 32.757 20.6443 32.7603 20.6738 32.7843C20.7033 32.8083 20.6986 32.844 20.6632 32.864L16.4328 35.26C16.4172 35.2689 16.3983 35.2732 16.3794 35.2732Z" fill="#02066F"/>
<path fill-rule="evenodd" clip-rule="evenodd" d="M16.3785 36.7336C16.3631 36.7336 16.3473 36.7307 16.3333 36.7247L12.9394 35.265C12.9002 35.2482 12.8887 35.2131 12.9138 35.1867C12.9389 35.1604 12.991 35.1527 13.0302 35.1696L16.424 36.6292C16.4632 36.6461 16.4747 36.6811 16.4496 36.7074C16.4335 36.7244 16.4063 36.7336 16.3785 36.7336Z" fill="#02066F"/>
<path d="M55.8759 19.4768H26.7548V52.1638H55.8759V19.4768Z" fill="#50555C"/>
<path d="M69.9346 19.4768H55.8761V52.1638H69.9346V19.4768Z" fill="#090E2B"/>
<path d="M44.3278 39.1226H38.3027V52.1635H44.3278V39.1226Z" fill="black"/>
<path d="M35.7924 38.9536H29.7673V47.083H35.7924V38.9536Z" fill="#02066F"/>
<path d="M35.7924 25.2354H29.7673V33.3647H35.7924V25.2354Z" fill="#02066F"/>
<path d="M52.8636 38.9536H46.8385V47.083H52.8636V38.9536Z" fill="#02066F"/>
<path d="M52.8636 25.2354H46.8385V33.3647H52.8636V25.2354Z" fill="#02066F"/>
<path d="M44.3278 25.2354H38.3027V33.3647H44.3278V25.2354Z" fill="#FFC30D"/>
<path d="M65.9179 25.2354H59.8928V33.3647H65.9179V25.2354Z" fill="#50555C"/>
<path d="M65.9179 38.9536H59.8928V47.083H65.9179V38.9536Z" fill="#FFC30D"/>
<path d="M42.8942 11.0083H39.7363C38.9446 11.0083 38.3027 11.8733 38.3027 12.9403V17.2057C38.3027 18.2727 38.9446 19.1377 39.7363 19.1377H42.8942C43.686 19.1377 44.3278 18.2727 44.3278 17.2057V12.9403C44.3278 11.8733 43.686 11.0083 42.8942 11.0083Z" fill="#50555C"/>
<path d="M60.6459 2.70996H40.5624V19.6462H60.6459V2.70996Z" fill="#50555C" fill-opacity="0.44"/>
<path d="M46.8383 2.70996H26.7548V19.6462H46.8383V2.70996Z" fill="#50555C"/>
<path d="M35.7924 4.91162H29.7673V17.275H35.7924V4.91162Z" fill="#02066F"/>
<path d="M44.3278 4.91162H38.3027V17.275H44.3278V4.91162Z" fill="#02066F"/>
<path d="M61.7757 0H46.8385V2.70977H61.7757V0Z" fill="#010103"/>
<path d="M57.6334 16.9368H46.8385V19.6465H57.6334V16.9368Z" fill="#50555C"/>
<path d="M71.3152 16.9368H57.6333V19.6465H71.3152V16.9368Z" fill="#010103"/>
<path d="M48.2193 0H26.755V2.70977H48.2193V0Z" fill="black"/>
<path fill-rule="evenodd" clip-rule="evenodd" d="M83.2217 43.7997C81.6571 41.7246 83.9452 41.2088 82.8725 39.2525C81.5727 36.882 83.4228 37.3495 82.6148 34.9614C81.9755 33.0718 80.8753 32.9962 80.7637 30.2986C80.6522 27.601 75.7585 27.4753 76.835 31.2403C77.9117 35.0053 75.1865 34.0915 75.6791 36.8285C76.3375 40.4868 73.7627 39.0339 74.5948 41.8478C75.3026 44.2415 72.3565 48.2763 79.4132 49.1812C85.6876 48.8287 84.7865 45.875 83.2217 43.7997Z" fill="#50555C" fill-opacity="0.64"/>
<path d="M77.785 39.37C77.8592 39.3532 77.9331 39.3974 77.9533 39.4695L77.9602 39.4969C77.962 39.5035 77.9642 39.5115 77.9669 39.5207C77.9782 39.5604 77.9929 39.607 78.0114 39.6598C78.0647 39.8123 78.137 39.9835 78.231 40.169C78.501 40.7014 78.8908 41.2394 79.4226 41.7488C79.479 41.8028 79.4806 41.8919 79.4262 41.9479C79.3717 42.0039 79.2819 42.0055 79.2255 41.9515C78.6699 41.4194 78.2614 40.8556 77.9775 40.2957C77.8777 40.0989 77.8006 39.9162 77.7433 39.7522C77.7253 39.7006 77.7104 39.6541 77.6983 39.6128L77.6895 39.5819C77.684 39.5623 77.6803 39.5478 77.6782 39.5387C77.6608 39.4628 77.7086 39.3873 77.785 39.37Z" fill="#090E2B"/>
<path d="M76.6329 43.931C76.7032 43.9023 76.7834 43.9338 76.8153 44.0014L76.8207 44.0137C76.8231 44.019 76.8268 44.0266 76.8318 44.0366L76.8373 44.0474C76.8567 44.0849 76.882 44.1291 76.9138 44.1795C77.0066 44.3263 77.133 44.4915 77.2981 44.6709C77.775 45.1893 78.4666 45.7142 79.4132 46.2115C79.4825 46.2479 79.5089 46.3332 79.4722 46.4019C79.4355 46.4707 79.3497 46.4969 79.2804 46.4605C78.3055 45.9483 77.5879 45.4037 77.0886 44.861C76.912 44.669 76.7752 44.4903 76.6735 44.3293C76.6405 44.2772 76.6133 44.2301 76.5912 44.1883L76.5848 44.1759C76.5702 44.1478 76.5607 44.1272 76.5556 44.1149C76.5258 44.0429 76.5604 43.9606 76.6329 43.931Z" fill="#090E2B"/>
<path d="M81.3932 41.2914C81.405 41.2145 81.4773 41.1616 81.5548 41.1732C81.6322 41.1849 81.6855 41.2567 81.6738 41.3336L81.6709 41.3506C81.6691 41.361 81.6666 41.3743 81.6633 41.3904L81.6571 41.4202C81.6493 41.4562 81.6399 41.496 81.6286 41.5395C81.5876 41.6979 81.5305 41.8738 81.4547 42.063C81.239 42.6017 80.9166 43.1404 80.4665 43.6438C80.1661 43.9797 79.8177 44.2885 79.4181 44.5643C79.3538 44.6087 79.2654 44.593 79.2207 44.5291C79.176 44.4652 79.1919 44.3774 79.2562 44.333C79.6371 44.0701 79.9687 43.7762 80.2543 43.4568C80.6814 42.9792 80.987 42.4685 81.1911 41.959C81.2623 41.7812 81.3157 41.6166 81.3538 41.4695C81.367 41.4185 81.3773 41.3735 81.3851 41.335L81.3896 41.3119C81.3912 41.3038 81.3922 41.2977 81.3929 41.2936L81.3932 41.2914Z" fill="#090E2B"/>
<path fill-rule="evenodd" clip-rule="evenodd" d="M96.1055 35.4585C94.7316 32.1539 96.7313 29.8054 93.9395 23.5469C91.1477 17.2884 87.3887 17.2865 86.8453 22.5522C86.302 27.8179 81.8867 31.1831 83.9549 35.9223C85.9876 40.5799 81.8313 41.6955 83.1991 45.1499C84.9377 49.5409 90.6194 49.6781 90.6194 49.6781C96.8057 49.6447 97.8007 47.6123 98.2746 45.8486C99.5175 41.2228 96.6985 36.8847 96.1055 35.4585Z" fill="#50555C" fill-opacity="0.99"/>
<path d="M93.3318 29.8069C93.3466 29.7305 93.421 29.6805 93.498 29.6951C93.5749 29.7098 93.6253 29.7836 93.6105 29.86L93.6064 29.8799C93.6023 29.8993 93.5964 29.9258 93.5884 29.9592L93.5834 29.98C93.5603 30.075 93.5306 30.185 93.4935 30.3088C93.3881 30.6611 93.2451 31.0545 93.059 31.4795C92.5281 32.6919 91.7582 33.9168 90.705 35.0782C90.6525 35.136 90.5628 35.1407 90.5046 35.0887C90.4464 35.0367 90.4417 34.9476 90.4941 34.8898C91.5259 33.752 92.2796 32.5528 92.7988 31.3673C92.9746 30.9659 93.1106 30.5943 93.2119 30.2608L93.2216 30.2287C93.2572 30.1096 93.2856 30.0043 93.3076 29.914L93.3138 29.8882C93.3167 29.8758 93.3194 29.8642 93.3218 29.8534L93.3299 29.8163C93.3308 29.812 93.3315 29.8089 93.3318 29.8069Z" fill="#090E2B"/>
<path d="M94.2596 40.3116C94.2788 40.2362 94.356 40.1905 94.432 40.2097C94.5079 40.2288 94.5539 40.3054 94.5346 40.3808L94.5307 40.3953C94.5252 40.4155 94.5168 40.4443 94.5051 40.4814L94.4984 40.5024C94.4678 40.598 94.4285 40.7085 94.3795 40.8329C94.2403 41.1863 94.0517 41.5808 93.8064 42.0069C93.1077 43.2207 92.0959 44.4469 90.7136 45.609C90.6538 45.6593 90.5642 45.652 90.5136 45.5926C90.463 45.5333 90.4704 45.4444 90.5302 45.3941C91.8867 44.2536 92.8775 43.0531 93.5601 41.8672C93.7983 41.4533 93.981 41.0713 94.1152 40.7304C94.159 40.6192 94.1946 40.5201 94.2225 40.4341L94.228 40.4171C94.2366 40.3905 94.2438 40.3669 94.2497 40.3466L94.2586 40.3152L94.2596 40.3116Z" fill="#090E2B"/>
<path d="M87.4029 35.0785C87.4783 35.0679 87.5482 35.1182 87.5621 35.1917L87.5661 35.2165L87.569 35.234C87.5711 35.2464 87.5736 35.2601 87.5764 35.2752C87.5885 35.3405 87.6045 35.4166 87.6247 35.5026C87.6827 35.7495 87.7632 36.0249 87.8698 36.3218C88.1746 37.1711 88.6266 38.0199 89.2541 38.8107C89.6734 39.3391 90.1586 39.8239 90.7145 40.2557C90.7762 40.3037 90.7871 40.3922 90.7388 40.4535C90.6905 40.5147 90.6013 40.5255 90.5396 40.4776C89.9655 40.0316 89.4643 39.5309 89.0312 38.9851C88.3834 38.1687 87.9172 37.2931 87.6025 36.4165C87.4923 36.1093 87.4088 35.8236 87.3484 35.5667C87.3271 35.4764 87.3103 35.396 87.2974 35.3263L87.29 35.2857C87.2863 35.2643 87.2838 35.2482 87.2823 35.2377C87.2713 35.1607 87.3253 35.0894 87.4029 35.0785Z" fill="#090E2B"/>
<path d="M79.2515 36.7299C79.3277 36.7295 79.3901 36.7887 79.3939 36.8634L79.3941 36.87L79.4709 51.9963C79.4713 52.0741 79.4081 52.1375 79.3297 52.1379C79.2536 52.1383 79.1912 52.0792 79.1873 52.0045L79.1871 51.9979L79.1103 36.8716C79.1099 36.7938 79.1732 36.7304 79.2515 36.7299Z" fill="#090E2B"/>
<path d="M90.5104 26.5847C90.5866 26.5843 90.649 26.6434 90.6529 26.7181L90.653 26.7248L90.7799 51.7187C90.7803 51.7965 90.7171 51.8599 90.6388 51.8603C90.5626 51.8607 90.5002 51.8016 90.4963 51.7269L90.4961 51.7203L90.3692 26.7263C90.3689 26.6485 90.4321 26.5851 90.5104 26.5847Z" fill="#090E2B"/>
<path fill-rule="evenodd" clip-rule="evenodd" d="M74.5694 52.0211C74.6607 52.0079 74.7629 52.0298 74.8542 52.0166L94.3937 51.9113C94.381 51.1737 93.9516 50.1069 93.3008 49.7494C92.6504 49.3924 91.8085 49.4083 91.1721 49.7889C91.4521 48.2739 91.6525 46.6915 91.2252 45.2103C90.7989 43.7292 89.5986 42.37 88.0563 42.1953C86.6102 42.0319 85.2113 42.9407 84.3852 44.1303C83.5591 45.3199 83.1932 46.7565 82.8429 48.1584C82.8801 47.4959 82.5458 46.8253 81.9935 46.452C81.4408 46.0787 80.6895 46.0167 80.082 46.2937C79.4038 46.6028 78.9551 47.2815 78.7491 47.9936C78.5435 48.7061 78.5477 49.4586 78.5536 50.1993C78.1132 49.222 76.8514 48.7013 75.8427 49.0804C74.8335 49.46 74.2474 50.9996 74.5694 52.0211Z" fill="#02066F"/>
<path fill-rule="evenodd" clip-rule="evenodd" d="M78.7089 51.9987C78.7622 51.9908 78.8215 52.0044 78.8748 51.9961L90.2498 51.9348C90.2425 51.5077 89.9921 50.89 89.6137 50.6833C89.2349 50.4766 88.7451 50.4855 88.3745 50.7063C88.5376 49.8288 88.654 48.912 88.4058 48.0544C88.1571 47.1967 87.4582 46.4097 86.5603 46.3085C85.7187 46.2137 84.9045 46.74 84.4233 47.429C83.9424 48.118 83.7297 48.9495 83.5253 49.7616C83.5468 49.3781 83.3526 48.9898 83.0309 48.774C82.7092 48.5577 82.2716 48.5213 81.9181 48.6819C81.5234 48.8612 81.2619 49.254 81.1421 49.6663C81.0227 50.0789 81.0249 50.5149 81.0283 50.9433C80.7722 50.3778 80.0374 50.0762 79.4502 50.2961C78.8626 50.5156 78.5213 51.4072 78.7089 51.9987Z" fill="#50555C" fill-opacity="0.64"/>
<path fill-rule="evenodd" clip-rule="evenodd" d="M127.427 8.3064C129.516 8.3064 131.209 9.57908 131.209 11.149V12.5703H123.646V11.149C123.646 10.6121 122.545 8.73477 122.889 8.3064H127.427Z" fill="#50555C"/>
<path d="M142.571 13.4497H103.074V52.1634H142.571V13.4497Z" fill="#50555C" fill-opacity="0.97"/>
<path d="M162.319 13.4497H142.571V52.1634H162.319V13.4497Z" fill="black"/>
<path fill-rule="evenodd" clip-rule="evenodd" d="M109.161 17.1045C110.83 17.1045 112.182 18.1196 112.182 19.3718V23.9403H106.141V19.3718C106.141 18.1196 107.493 17.1045 109.161 17.1045Z" fill="#02066F"/>
<path fill-rule="evenodd" clip-rule="evenodd" d="M109.161 29.3547C110.83 29.3547 112.182 30.3699 112.182 31.6221V36.1905H106.141V31.6221C106.141 30.3699 107.493 29.3547 109.161 29.3547Z" fill="#FFC30D"/>
<path fill-rule="evenodd" clip-rule="evenodd" d="M127.377 17.1045C129.045 17.1045 130.398 18.1196 130.398 19.3718V23.9403H124.356V19.3718C124.356 18.1196 125.708 17.1045 127.377 17.1045Z" fill="#FFC30D"/>
<path fill-rule="evenodd" clip-rule="evenodd" d="M147.846 17.1045C149.515 17.1045 150.867 18.1196 150.867 19.3718V23.9403H144.825V19.3718C144.825 18.1196 146.178 17.1045 147.846 17.1045Z" fill="#50555C"/>
<path fill-rule="evenodd" clip-rule="evenodd" d="M147.846 29.3547C149.515 29.3547 150.867 30.3699 150.867 31.6221V36.1905H144.825V31.6221C144.825 30.3699 146.178 29.3547 147.846 29.3547Z" fill="#50555C"/>
<path fill-rule="evenodd" clip-rule="evenodd" d="M127.377 29.3547C129.045 29.3547 130.398 30.3699 130.398 31.6221V36.1905H124.356V31.6221C124.356 30.3699 125.708 29.3547 127.377 29.3547Z" fill="#02066F"/>
<path fill-rule="evenodd" clip-rule="evenodd" d="M118.269 17.1045C119.937 17.1045 121.29 18.1196 121.29 19.3718V23.9403H115.248V19.3718C115.248 18.1196 116.601 17.1045 118.269 17.1045Z" fill="#02066F"/>
<path fill-rule="evenodd" clip-rule="evenodd" d="M118.269 29.3547C119.937 29.3547 121.29 30.3699 121.29 31.6221V36.1905H115.248V31.6221C115.248 30.3699 116.601 29.3547 118.269 29.3547Z" fill="#02066F"/>
<path fill-rule="evenodd" clip-rule="evenodd" d="M136.484 17.1045C138.153 17.1045 139.505 18.1196 139.505 19.3718V23.9403H133.463V19.3718C133.463 18.1196 134.816 17.1045 136.484 17.1045Z" fill="#02066F"/>
<path fill-rule="evenodd" clip-rule="evenodd" d="M156.954 17.1045C158.622 17.1045 159.975 18.1196 159.975 19.3718V23.9403H153.933V19.3718C153.933 18.1196 155.286 17.1045 156.954 17.1045Z" fill="#50555C"/>
<path fill-rule="evenodd" clip-rule="evenodd" d="M156.954 29.3547C158.622 29.3547 159.975 30.3699 159.975 31.6221V36.1905H153.933V31.6221C153.933 30.3699 155.286 29.3547 156.954 29.3547Z" fill="#50555C"/>
<path fill-rule="evenodd" clip-rule="evenodd" d="M136.484 29.3547C138.153 29.3547 139.505 30.3699 139.505 31.6221V36.1905H133.463V31.6221C133.463 30.3699 134.816 29.3547 136.484 29.3547Z" fill="#02066F"/>
<path d="M144.104 23.6702H101.632V24.8207H144.104V23.6702Z" fill="#010103"/>
<path d="M144.104 12.2993H101.632V13.4499H144.104V12.2993Z" fill="#010103"/>
<path d="M163.852 12.2993H144.104V13.4499H163.852V12.2993Z" fill="#50555C"/>
<path d="M163.852 23.6702H144.104V24.8207H163.852V23.6702Z" fill="#50555C"/>
<path d="M163.852 36.1904H144.104V37.341H163.852V36.1904Z" fill="#50555C"/>
<path d="M144.104 36.1904H101.632V37.341H144.104V36.1904Z" fill="#010103"/>
<path fill-rule="evenodd" clip-rule="evenodd" d="M122.823 8.3064C124.914 8.3064 126.61 9.57908 126.61 11.149V12.5703H119.035V11.149C119.035 9.57908 120.731 8.3064 122.823 8.3064Z" fill="#010103"/>
<path fill-rule="evenodd" clip-rule="evenodd" d="M122.732 41.9436C124.774 41.9436 126.43 43.186 126.43 44.7185V52.1635H119.035V44.7185C119.035 43.186 120.691 41.9436 122.732 41.9436Z" fill="black"/>
<path d="M122.823 11.7577C123.67 11.7577 124.356 11.2426 124.356 10.6071C124.356 9.97168 123.67 9.45654 122.823 9.45654C121.976 9.45654 121.29 9.97168 121.29 10.6071C121.29 11.2426 121.976 11.7577 122.823 11.7577Z" fill="#50555C"/>
<path d="M116.421 41.8762H106.141V49.8626H116.421V41.8762Z" fill="#02066F"/>
<path d="M139.505 41.8762H129.225V49.8626H139.505V41.8762Z" fill="#02066F"/>
<path d="M157.54 41.8762H147.26V49.8626H157.54V41.8762Z" fill="#50555C"/>
<path fill-rule="evenodd" clip-rule="evenodd" d="M173.08 51.9772C173.08 51.9772 171.685 46.9325 168.972 42.3388C166.258 37.7452 166.592 34.5794 168.832 33.7269C171.073 32.8743 174.774 35.2138 175.96 38.4766C176.727 40.5863 178.08 47.277 175.084 51.9427C174.206 51.9279 173.08 51.9772 173.08 51.9772Z" fill="#02066F"/>
<path fill-rule="evenodd" clip-rule="evenodd" d="M172.257 34.4014C170.495 25.3581 173.271 24.0654 176.396 25.1104C179.521 26.1554 181.693 30.899 181.293 35.4732C180.682 42.4549 176.592 51.917 176.592 51.917L174.156 51.9589C174.064 46.2828 173.431 40.4304 172.257 34.4014Z" fill="black" fill-opacity="0.4"/>
<path d="M175.612 28.1283C175.646 28.1087 175.686 28.1255 175.704 28.1657L175.707 28.1737L175.72 28.209L175.731 28.2404C175.743 28.2731 175.756 28.3105 175.771 28.3526L175.784 28.3923C175.832 28.5336 175.884 28.6988 175.94 28.8877L175.96 28.955C176.129 29.5309 176.3 30.2083 176.461 30.9848C176.859 32.8935 177.141 35.0934 177.254 37.5713C177.356 39.8184 177.266 41.9793 176.988 44.3917L176.974 44.5143C176.738 46.5191 176.392 48.609 175.768 51.9525C175.759 51.9992 175.721 52.0281 175.683 52.017C175.646 52.0059 175.622 51.9591 175.631 51.9124L175.687 51.6092C176.288 48.379 176.621 46.3415 176.849 44.3661C177.126 41.9646 177.215 39.8151 177.114 37.58C177.001 35.1136 176.72 32.925 176.325 31.0271C176.162 30.241 175.989 29.5579 175.818 28.9801L175.808 28.9469C175.748 28.7425 175.691 28.5665 175.641 28.4193L175.621 28.3611C175.612 28.3338 175.603 28.3091 175.595 28.287L175.579 28.2439C175.562 28.2004 175.577 28.1487 175.612 28.1283Z" fill="#02066F"/>
<path fill-rule="evenodd" clip-rule="evenodd" d="M184.115 34.7666C188.775 34.3927 189.149 39.1766 188.576 41.1588C187.899 43.4974 185.783 45.0849 184.087 46.0354C180.097 48.2716 179.13 51.8736 179.13 51.8736L175.606 51.9341C175.606 51.9341 176.011 35.417 184.115 34.7666Z" fill="url(#paint0_linear_1413_8032)"/>
<path d="M184.872 38.4552C184.908 38.4365 184.949 38.4572 184.965 38.5014C184.98 38.5456 184.964 38.5966 184.928 38.6153C180.883 40.7374 178.415 45.1675 177.525 51.9168C177.519 51.9642 177.483 51.996 177.445 51.988C177.406 51.98 177.38 51.9352 177.387 51.8878C178.284 45.0835 180.78 40.6022 184.872 38.4552Z" fill="#02066F"/>
<path fill-rule="evenodd" clip-rule="evenodd" d="M191.98 22.3216L201.245 19.0662V52.1634H191.98V22.3216Z" fill="#50555C"/>
<path fill-rule="evenodd" clip-rule="evenodd" d="M200.737 5.77893L219.014 0.0759277V52.1633H200.737V5.77893Z" fill="#50555C"/>
<path fill-rule="evenodd" clip-rule="evenodd" d="M219.014 0.0759277H236.275V52.1633H219.014V0.0759277Z" fill="#50555C" fill-opacity="0.67"/>
<path d="M216.983 45.3271H194.645V52.1636H216.983V45.3271Z" fill="#02066F"/>
<path d="M208.86 48.2029H202.768V52.1637H208.86V48.2029Z" fill="#FFC30D"/>
<path fill-rule="evenodd" clip-rule="evenodd" d="M202.768 6.50143L208.86 4.41675V44.3504H202.768V6.50143Z" fill="black"/>
<path fill-rule="evenodd" clip-rule="evenodd" d="M210.891 3.73376L216.983 1.64966V44.3505H210.891V3.73376Z" fill="black"/>
<path d="M233.61 19.5002H222.441V29.9177H233.61V19.5002Z" fill="#02066F"/>
<path d="M233.61 39.1958H222.441V49.6133H233.61V39.1958Z" fill="#02066F"/>
<path d="M233.61 12.9351H222.441V16.7874H233.61V12.9351Z" fill="#02066F"/>
<path d="M233.61 1.64966H222.441V10.1681H233.61V1.64966Z" fill="#02066F"/>
<path fill-rule="evenodd" clip-rule="evenodd" d="M194.645 23.1354L200.737 20.9651V44.3502H194.645V23.1354Z" fill="black"/>
<path d="M233.61 32.6301H222.441V36.4824H233.61V32.6301Z" fill="#FFC30D"/>
<path fill-rule="evenodd" clip-rule="evenodd" d="M248.182 43.8002C246.617 41.7251 248.905 41.2093 247.833 39.253C246.533 36.8825 248.383 37.35 247.575 34.9619C246.936 33.0722 245.836 32.9967 245.724 30.299C245.612 27.6014 240.719 27.4758 241.795 31.2408C242.872 35.0058 240.147 34.092 240.639 36.829C241.298 40.4873 238.723 39.0344 239.555 41.8483C240.263 44.242 237.317 48.2768 244.373 49.1816C250.648 48.8292 249.747 45.8755 248.182 43.8002Z" fill="#50555C" fill-opacity="0.68"/>
<path d="M242.745 39.37C242.819 39.3532 242.893 39.3974 242.913 39.4695L242.92 39.4969C242.922 39.5035 242.924 39.5115 242.927 39.5207C242.938 39.5604 242.953 39.607 242.972 39.6598C243.025 39.8123 243.097 39.9835 243.191 40.169C243.461 40.7014 243.851 41.2394 244.383 41.7488C244.439 41.8028 244.441 41.8919 244.386 41.9479C244.332 42.0039 244.242 42.0055 244.186 41.9515C243.63 41.4194 243.222 40.8556 242.938 40.2957C242.838 40.0989 242.761 39.9162 242.704 39.7522C242.686 39.7006 242.671 39.6541 242.658 39.6128L242.65 39.5819C242.644 39.5623 242.641 39.5478 242.638 39.5387C242.621 39.4628 242.669 39.3873 242.745 39.37Z" fill="#090E2B"/>
<path d="M241.593 43.9305C241.663 43.9018 241.744 43.9333 241.775 44.0009L241.781 44.0132C241.783 44.0185 241.787 44.0262 241.792 44.0362L241.798 44.0469C241.817 44.0844 241.842 44.1287 241.874 44.179C241.967 44.3258 242.093 44.491 242.258 44.6704C242.735 45.1888 243.427 45.7137 244.373 46.2111C244.443 46.2474 244.469 46.3327 244.432 46.4014C244.396 46.4702 244.31 46.4964 244.241 46.46C243.266 45.9478 242.548 45.4032 242.049 44.8605C241.872 44.6685 241.735 44.4899 241.634 44.3288C241.601 44.2767 241.573 44.2296 241.551 44.1878L241.545 44.1754C241.53 44.1473 241.521 44.1267 241.516 44.1144C241.486 44.0424 241.521 43.9601 241.593 43.9305Z" fill="#090E2B"/>
<path d="M246.353 41.2917C246.365 41.2148 246.437 41.1618 246.515 41.1735C246.592 41.1851 246.646 41.2569 246.634 41.3338L246.631 41.3508C246.629 41.3612 246.627 41.3745 246.623 41.3906L246.617 41.4205C246.609 41.4564 246.6 41.4963 246.589 41.5398C246.548 41.6981 246.491 41.8741 246.415 42.0632C246.199 42.6019 245.877 43.1406 245.427 43.644C245.126 43.98 244.778 44.2888 244.378 44.5646C244.314 44.609 244.225 44.5932 244.181 44.5293C244.136 44.4655 244.152 44.3777 244.216 44.3333C244.597 44.0704 244.929 43.7765 245.214 43.457C245.642 42.9794 245.947 42.4688 246.151 41.9592C246.222 41.7815 246.276 41.6168 246.314 41.4697C246.327 41.4187 246.337 41.3737 246.345 41.3352L246.35 41.3121C246.351 41.3041 246.352 41.298 246.353 41.2939L246.353 41.2917Z" fill="#090E2B"/>
<path fill-rule="evenodd" clip-rule="evenodd" d="M261.066 35.4583C259.692 32.1537 261.692 29.8051 258.9 23.5466C256.108 17.2882 252.349 17.2863 251.806 22.552C251.262 27.8177 246.847 31.1829 248.915 35.922C250.948 40.5796 246.792 41.6953 248.16 45.1497C249.898 49.5406 255.58 49.6778 255.58 49.6778C261.766 49.6445 262.761 47.6121 263.235 45.8484C264.478 41.2226 261.659 36.8845 261.066 35.4583Z" fill="#50555C" fill-opacity="0.68"/>
<path d="M258.292 29.8069C258.307 29.7305 258.381 29.6805 258.458 29.6951C258.535 29.7098 258.586 29.7836 258.571 29.86L258.567 29.8799C258.563 29.8993 258.557 29.9258 258.549 29.9592L258.544 29.98C258.521 30.075 258.491 30.185 258.454 30.3088C258.348 30.6611 258.205 31.0545 258.019 31.4795C257.488 32.6919 256.718 33.9168 255.665 35.0782C255.613 35.136 255.523 35.1407 255.465 35.0887C255.407 35.0367 255.402 34.9476 255.454 34.8898C256.486 33.752 257.24 32.5528 257.759 31.3673C257.935 30.9659 258.071 30.5943 258.172 30.2608L258.182 30.2287C258.218 30.1096 258.246 30.0043 258.268 29.914L258.274 29.8882C258.277 29.8758 258.28 29.8642 258.282 29.8534L258.29 29.8163C258.291 29.812 258.292 29.8089 258.292 29.8069Z" fill="#090E2B"/>
<path d="M259.22 40.3118C259.239 40.2364 259.316 40.1908 259.392 40.2099C259.468 40.229 259.514 40.3056 259.495 40.381L259.491 40.3956C259.485 40.4157 259.477 40.4445 259.465 40.4816L259.459 40.5027C259.428 40.5982 259.389 40.7088 259.34 40.8331C259.2 41.1866 259.012 41.5811 258.767 42.0071C258.068 43.221 257.056 44.4471 255.674 45.6093C255.614 45.6596 255.524 45.6522 255.474 45.5929C255.423 45.5335 255.431 45.4446 255.49 45.3943C256.847 44.2539 257.838 43.0533 258.52 41.8674C258.758 41.4536 258.941 41.0715 259.075 40.7306C259.119 40.6194 259.155 40.5203 259.183 40.4344L259.188 40.4174C259.197 40.3907 259.204 40.3672 259.21 40.3468L259.219 40.3154L259.22 40.3118Z" fill="#090E2B"/>
<path d="M252.363 35.078C252.438 35.0674 252.508 35.1177 252.522 35.1912L252.526 35.216L252.529 35.2335C252.531 35.2459 252.534 35.2596 252.537 35.2747C252.549 35.34 252.565 35.4161 252.585 35.5021C252.643 35.749 252.723 36.0245 252.83 36.3213C253.135 37.1706 253.587 38.0194 254.214 38.8102C254.634 39.3387 255.119 39.8234 255.675 40.2552C255.736 40.3032 255.747 40.3917 255.699 40.453C255.651 40.5142 255.562 40.5251 255.5 40.4771C254.926 40.0311 254.424 39.5304 253.991 38.9846C253.344 38.1682 252.877 37.2926 252.563 36.416C252.452 36.1088 252.369 35.8231 252.309 35.5663C252.287 35.4759 252.27 35.3955 252.258 35.3259L252.25 35.2852C252.247 35.2638 252.244 35.2477 252.242 35.2373C252.232 35.1602 252.286 35.089 252.363 35.078Z" fill="#090E2B"/>
<path d="M244.212 36.7295C244.288 36.729 244.35 36.7882 244.354 36.8629L244.354 36.8695L244.431 51.9958C244.431 52.0736 244.368 52.137 244.29 52.1374C244.214 52.1379 244.151 52.0787 244.147 52.004L244.147 51.9974L244.07 36.8711C244.07 36.7933 244.133 36.7299 244.212 36.7295Z" fill="#090E2B"/>
<path d="M255.471 26.5842C255.547 26.5838 255.609 26.643 255.613 26.7176L255.613 26.7243L255.74 51.7182C255.741 51.796 255.677 51.8594 255.599 51.8598C255.523 51.8603 255.46 51.8011 255.457 51.7264L255.456 51.7198L255.329 26.7258C255.329 26.648 255.392 26.5846 255.471 26.5842Z" fill="#090E2B"/>
<path fill-rule="evenodd" clip-rule="evenodd" d="M239.529 52.0214C239.621 52.0082 239.723 52.0301 239.814 52.0169L259.354 51.9115C259.341 51.1739 258.912 50.1072 258.261 49.7497C257.61 49.3926 256.768 49.4086 256.132 49.7891C256.412 48.2741 256.612 46.6917 256.185 45.2106C255.759 43.7294 254.559 42.3703 253.016 42.1955C251.57 42.0321 250.171 42.9409 249.345 44.1305C248.519 45.3201 248.153 46.7568 247.803 48.1586C247.84 47.4962 247.506 46.8255 246.953 46.4523C246.401 46.079 245.649 46.0169 245.042 46.2939C244.364 46.6031 243.915 47.2817 243.709 47.9939C243.503 48.7064 243.508 49.4589 243.514 50.1995C243.073 49.2223 241.811 48.7015 240.803 49.0807C239.793 49.4603 239.207 50.9998 239.529 52.0214Z" fill="#02066F"/>
<path fill-rule="evenodd" clip-rule="evenodd" d="M243.669 51.9985C243.722 51.9906 243.782 52.0042 243.835 51.9959L255.21 51.9346C255.203 51.5074 254.952 50.8897 254.574 50.683C254.195 50.4763 253.705 50.4853 253.335 50.7061C253.498 49.8286 253.614 48.9118 253.366 48.0541C253.117 47.1965 252.418 46.4095 251.52 46.3083C250.679 46.2135 249.865 46.7397 249.383 47.4287C248.903 48.1178 248.69 48.9492 248.485 49.7613C248.507 49.3778 248.313 48.9896 247.991 48.7737C247.669 48.5575 247.232 48.5211 246.878 48.6817C246.483 48.861 246.222 49.2538 246.102 49.666C245.983 50.0787 245.985 50.5147 245.988 50.9431C245.732 50.3776 244.997 50.076 244.41 50.2959C243.823 50.5154 243.481 51.4069 243.669 51.9985Z" fill="black"/>
<path fill-rule="evenodd" clip-rule="evenodd" d="M293.63 1.2793L307.395 18.6826H279.628L280.279 1.2793H293.63Z" fill="black"/>
<path d="M294.133 18.5173H266.592V52.1636H294.133V18.5173Z" fill="#50555C"/>
<path d="M307.451 18.5173H294.132V52.1636H307.451V18.5173Z" fill="#50555C" fill-opacity="0.09"/>
<path d="M283.184 38.7378H277.484V52.1632H283.184V38.7378Z" fill="#FFC30D"/>
<path d="M273.731 38.5713H270.796C270.033 38.5713 269.414 39.4803 269.414 40.6017V44.911C269.414 46.0324 270.033 46.9414 270.796 46.9414H273.731C274.495 46.9414 275.114 46.0324 275.114 44.911V40.6017C275.114 39.4803 274.495 38.5713 273.731 38.5713Z" fill="#02066F"/>
<path d="M273.759 24.4834H270.768C270.02 24.4834 269.414 25.3739 269.414 26.4723V30.8646C269.414 31.9631 270.02 32.8535 270.768 32.8535H273.759C274.507 32.8535 275.114 31.9631 275.114 30.8646V26.4723C275.114 25.3739 274.507 24.4834 273.759 24.4834Z" fill="#02066F"/>
<path d="M289.871 38.5713H286.937C286.173 38.5713 285.554 39.4803 285.554 40.6017V44.911C285.554 46.0324 286.173 46.9414 286.937 46.9414H289.871C290.635 46.9414 291.254 46.0324 291.254 44.911V40.6017C291.254 39.4803 290.635 38.5713 289.871 38.5713Z" fill="#02066F"/>
<path d="M289.9 24.4834H286.909C286.16 24.4834 285.554 25.3739 285.554 26.4723V30.8646C285.554 31.9631 286.16 32.8535 286.909 32.8535H289.9C290.648 32.8535 291.254 31.9631 291.254 30.8646V26.4723C291.254 25.3739 290.648 24.4834 289.9 24.4834Z" fill="#02066F"/>
<path d="M281.829 24.4834H278.838C278.09 24.4834 277.484 25.3739 277.484 26.4723V30.8646C277.484 31.9631 278.09 32.8535 278.838 32.8535H281.829C282.577 32.8535 283.184 31.9631 283.184 30.8646V26.4723C283.184 25.3739 282.577 24.4834 281.829 24.4834Z" fill="#02066F"/>
<path d="M302.259 24.4834H299.268C298.52 24.4834 297.913 25.3739 297.913 26.4723V30.8646C297.913 31.9631 298.52 32.8535 299.268 32.8535H302.259C303.007 32.8535 303.613 31.9631 303.613 30.8646V26.4723C303.613 25.3739 303.007 24.4834 302.259 24.4834Z" fill="#02066F"/>
<path d="M302.231 38.5713H299.296C298.532 38.5713 297.913 39.4803 297.913 40.6017V44.911C297.913 46.0324 298.532 46.9414 299.296 46.9414H302.231C302.994 46.9414 303.613 46.0324 303.613 44.911V40.6017C303.613 39.4803 302.994 38.5713 302.231 38.5713Z" fill="#02066F"/>
<path fill-rule="evenodd" clip-rule="evenodd" d="M280.362 1.2793L294.132 18.6826H266.592L280.362 1.2793Z" fill="black"/>
<path d="M281.829 9.81494H278.838C278.09 9.81494 277.484 10.7054 277.484 11.8039V16.1961C277.484 17.2946 278.09 18.1851 278.838 18.1851H281.829C282.577 18.1851 283.184 17.2946 283.184 16.1961V11.8039C283.184 10.7054 282.577 9.81494 281.829 9.81494Z" fill="black"/>
<path fill-rule="evenodd" clip-rule="evenodd" d="M316.678 51.9772C316.678 51.9772 315.284 46.9325 312.57 42.3388C309.857 37.7452 310.191 34.5794 312.431 33.7269C314.671 32.8743 318.372 35.2138 319.558 38.4766C320.325 40.5863 321.679 47.277 318.683 51.9427C317.805 51.9279 316.678 51.9772 316.678 51.9772Z" fill="black" fill-opacity="0.4"/>
<path fill-rule="evenodd" clip-rule="evenodd" d="M315.856 34.4014C314.094 25.3581 316.869 24.0654 319.994 25.1104C323.119 26.1554 325.292 30.899 324.891 35.4732C324.281 42.4549 320.191 51.917 320.191 51.917L317.755 51.9589C317.663 46.2828 317.03 40.4304 315.856 34.4014Z" fill="url(#paint1_linear_1413_8032)"/>
<path d="M319.211 28.1283C319.244 28.1087 319.285 28.1255 319.302 28.1657L319.306 28.1737L319.319 28.209L319.33 28.2404C319.342 28.2731 319.355 28.3105 319.369 28.3526L319.383 28.3923C319.43 28.5336 319.483 28.6988 319.539 28.8877L319.559 28.955C319.728 29.5309 319.898 30.2083 320.06 30.9848C320.457 32.8935 320.74 35.0934 320.852 37.5713C320.954 39.8184 320.865 41.9793 320.586 44.3917L320.572 44.5143C320.336 46.5191 319.991 48.609 319.366 51.9525C319.357 51.9992 319.32 52.0281 319.282 52.017C319.244 52.0059 319.221 51.9591 319.229 51.9124L319.286 51.6092C319.886 48.379 320.219 46.3415 320.447 44.3661C320.725 41.9646 320.814 39.8151 320.712 37.58C320.6 35.1136 320.319 32.925 319.924 31.0271C319.76 30.241 319.588 29.5579 319.417 28.9801L319.407 28.9469C319.346 28.7425 319.29 28.5665 319.24 28.4193L319.22 28.3611C319.21 28.3338 319.201 28.3091 319.193 28.287L319.177 28.2439C319.161 28.2004 319.176 28.1487 319.211 28.1283Z" fill="black" fill-opacity="0.4"/>
<path fill-rule="evenodd" clip-rule="evenodd" d="M327.714 34.7666C332.373 34.3927 332.747 39.1766 332.174 41.1588C331.498 43.4974 329.381 45.0849 327.685 46.0354C323.695 48.2716 322.728 51.8736 322.728 51.8736L319.204 51.9341C319.204 51.9341 319.61 35.417 327.714 34.7666Z" fill="black"/>
<path d="M328.471 38.4552C328.507 38.4365 328.548 38.4572 328.563 38.5014C328.579 38.5456 328.562 38.5966 328.527 38.6153C324.481 40.7374 322.014 45.1675 321.124 51.9168C321.118 51.9642 321.081 51.996 321.043 51.988C321.005 51.98 320.979 51.9352 320.985 51.8878C321.882 45.0835 324.378 40.6022 328.471 38.4552Z" fill="black" fill-opacity="0.4"/>
<defs>
<linearGradient id="paint0_linear_1413_8032" x1="182.017" y1="34.7897" x2="182.309" y2="51.819" gradientUnits="userSpaceOnUse">
<stop stop-color="#02066F"/>
<stop offset="1" stop-color="#02066F" stop-opacity="0"/>
</linearGradient>
<linearGradient id="paint1_linear_1413_8032" x1="320.006" y1="24.7754" x2="320.472" y2="51.9122" gradientUnits="userSpaceOnUse">
<stop stop-color="#02066F"/>
<stop offset="1" stop-color="#02066F" stop-opacity="0"/>
</linearGradient>
</defs>
</svg>
